<mxfile host="Electron" modified="2024-11-01T10:42:40.335Z" agent="Mozilla/5.0 (X11; Linux x86_64) AppleWebKit/537.36 (KHTML, like Gecko) draw.io/24.5.3 Chrome/124.0.6367.207 Electron/30.0.6 Safari/537.36" etag="E64wZ2uJGoDW4ytkeqSE" version="24.5.3" type="device" pages="2">
  <diagram name="Hardware" id="1jqMc8SVdaduA_VYMaS6">
    <mxGraphModel dx="1680" dy="700" grid="1" gridSize="10" guides="1" tooltips="1" connect="1" arrows="1" fold="1" page="1" pageScale="1" pageWidth="827" pageHeight="1169" math="0" shadow="0">
      <root>
        <mxCell id="0" />
        <mxCell id="1" parent="0" />
        <mxCell id="no-w3kHmlKPdVMOaWSqH-8" value="" style="rounded=0;whiteSpace=wrap;html=1;fillColor=#d5e8d4;strokeColor=#82b366;movable=0;resizable=0;rotatable=0;deletable=0;editable=0;locked=1;connectable=0;" parent="1" vertex="1">
          <mxGeometry x="370" y="40" width="430" height="230" as="geometry" />
        </mxCell>
        <mxCell id="zH7CD539yPKMTo7ZfEln-61" style="edgeStyle=orthogonalEdgeStyle;rounded=0;orthogonalLoop=1;jettySize=auto;html=1;exitX=1.001;exitY=0.739;exitDx=0;exitDy=0;exitPerimeter=0;" parent="1" source="zH7CD539yPKMTo7ZfEln-1" target="zH7CD539yPKMTo7ZfEln-12" edge="1">
          <mxGeometry relative="1" as="geometry" />
        </mxCell>
        <mxCell id="zH7CD539yPKMTo7ZfEln-62" value="I2C" style="edgeLabel;html=1;align=center;verticalAlign=middle;resizable=0;points=[];" parent="zH7CD539yPKMTo7ZfEln-61" vertex="1" connectable="0">
          <mxGeometry x="-0.199" relative="1" as="geometry">
            <mxPoint x="8" y="1" as="offset" />
          </mxGeometry>
        </mxCell>
        <mxCell id="zH7CD539yPKMTo7ZfEln-63" value="" style="edgeStyle=orthogonalEdgeStyle;rounded=0;orthogonalLoop=1;jettySize=auto;html=1;exitX=0.998;exitY=0.238;exitDx=0;exitDy=0;entryX=0;entryY=0.5;entryDx=0;entryDy=0;exitPerimeter=0;fillColor=#f8cecc;strokeColor=#b85450;" parent="1" source="zH7CD539yPKMTo7ZfEln-1" target="no-w3kHmlKPdVMOaWSqH-1" edge="1">
          <mxGeometry relative="1" as="geometry" />
        </mxCell>
        <mxCell id="zH7CD539yPKMTo7ZfEln-64" value="Vsensor&lt;div&gt;3V - 3.6V&lt;/div&gt;" style="edgeLabel;html=1;align=center;verticalAlign=middle;resizable=0;points=[];" parent="zH7CD539yPKMTo7ZfEln-63" vertex="1" connectable="0">
          <mxGeometry x="-0.146" relative="1" as="geometry">
            <mxPoint x="-15" y="-20" as="offset" />
          </mxGeometry>
        </mxCell>
        <mxCell id="zH7CD539yPKMTo7ZfEln-1" value="MFM V4" style="rounded=0;whiteSpace=wrap;html=1;" parent="1" vertex="1">
          <mxGeometry x="30" y="40" width="70" height="440" as="geometry" />
        </mxCell>
        <mxCell id="zH7CD539yPKMTo7ZfEln-3" value="" style="swimlane;startSize=0;" parent="1" vertex="1">
          <mxGeometry x="170" y="40" width="630" height="440" as="geometry" />
        </mxCell>
        <mxCell id="zH7CD539yPKMTo7ZfEln-20" style="edgeStyle=orthogonalEdgeStyle;rounded=0;orthogonalLoop=1;jettySize=auto;html=1;exitX=1;exitY=0.5;exitDx=0;exitDy=0;" parent="zH7CD539yPKMTo7ZfEln-3" source="zH7CD539yPKMTo7ZfEln-12" target="zH7CD539yPKMTo7ZfEln-19" edge="1">
          <mxGeometry relative="1" as="geometry" />
        </mxCell>
        <mxCell id="zH7CD539yPKMTo7ZfEln-21" value="UPDI" style="edgeLabel;html=1;align=center;verticalAlign=middle;resizable=0;points=[];" parent="zH7CD539yPKMTo7ZfEln-20" vertex="1" connectable="0">
          <mxGeometry x="0.3557" y="-2" relative="1" as="geometry">
            <mxPoint as="offset" />
          </mxGeometry>
        </mxCell>
        <mxCell id="zH7CD539yPKMTo7ZfEln-57" style="edgeStyle=orthogonalEdgeStyle;rounded=0;orthogonalLoop=1;jettySize=auto;html=1;entryX=0;entryY=0.5;entryDx=0;entryDy=0;exitX=0.5;exitY=1;exitDx=0;exitDy=0;" parent="zH7CD539yPKMTo7ZfEln-3" source="zH7CD539yPKMTo7ZfEln-12" target="zH7CD539yPKMTo7ZfEln-55" edge="1">
          <mxGeometry relative="1" as="geometry" />
        </mxCell>
        <mxCell id="Ar8b3TrCb_WrASNO3pO2-12" value="UART" style="edgeLabel;html=1;align=center;verticalAlign=middle;resizable=0;points=[];" vertex="1" connectable="0" parent="zH7CD539yPKMTo7ZfEln-57">
          <mxGeometry x="-0.5744" y="-2" relative="1" as="geometry">
            <mxPoint as="offset" />
          </mxGeometry>
        </mxCell>
        <mxCell id="no-w3kHmlKPdVMOaWSqH-9" style="edgeStyle=orthogonalEdgeStyle;rounded=0;orthogonalLoop=1;jettySize=auto;html=1;exitX=0.75;exitY=0;exitDx=0;exitDy=0;entryX=0.75;entryY=1;entryDx=0;entryDy=0;" parent="zH7CD539yPKMTo7ZfEln-3" source="zH7CD539yPKMTo7ZfEln-12" target="no-w3kHmlKPdVMOaWSqH-6" edge="1">
          <mxGeometry relative="1" as="geometry" />
        </mxCell>
        <mxCell id="zH7CD539yPKMTo7ZfEln-12" value="MCU" style="rounded=0;whiteSpace=wrap;html=1;glass=0;shadow=0;" parent="zH7CD539yPKMTo7ZfEln-3" vertex="1">
          <mxGeometry x="290" y="300" width="75" height="50" as="geometry" />
        </mxCell>
        <mxCell id="zH7CD539yPKMTo7ZfEln-19" value="DEBUG Port" style="rounded=0;whiteSpace=wrap;html=1;glass=0;shadow=0;" parent="zH7CD539yPKMTo7ZfEln-3" vertex="1">
          <mxGeometry x="510" y="300" width="75" height="50" as="geometry" />
        </mxCell>
        <mxCell id="zH7CD539yPKMTo7ZfEln-54" value="USB" style="rounded=0;whiteSpace=wrap;html=1;glass=0;shadow=0;" parent="zH7CD539yPKMTo7ZfEln-3" vertex="1">
          <mxGeometry x="510" y="370" width="75" height="50" as="geometry" />
        </mxCell>
        <mxCell id="zH7CD539yPKMTo7ZfEln-56" style="edgeStyle=orthogonalEdgeStyle;rounded=0;orthogonalLoop=1;jettySize=auto;html=1;" parent="zH7CD539yPKMTo7ZfEln-3" source="zH7CD539yPKMTo7ZfEln-55" target="zH7CD539yPKMTo7ZfEln-54" edge="1">
          <mxGeometry relative="1" as="geometry" />
        </mxCell>
        <mxCell id="zH7CD539yPKMTo7ZfEln-55" value="USB-UART" style="rounded=0;whiteSpace=wrap;html=1;glass=0;shadow=0;" parent="zH7CD539yPKMTo7ZfEln-3" vertex="1">
          <mxGeometry x="410" y="370" width="75" height="50" as="geometry" />
        </mxCell>
        <mxCell id="no-w3kHmlKPdVMOaWSqH-3" style="edgeStyle=orthogonalEdgeStyle;rounded=0;orthogonalLoop=1;jettySize=auto;html=1;fillColor=#f8cecc;strokeColor=#b85450;" parent="zH7CD539yPKMTo7ZfEln-3" source="no-w3kHmlKPdVMOaWSqH-1" target="no-w3kHmlKPdVMOaWSqH-2" edge="1">
          <mxGeometry relative="1" as="geometry" />
        </mxCell>
        <mxCell id="no-w3kHmlKPdVMOaWSqH-4" style="edgeStyle=orthogonalEdgeStyle;rounded=0;orthogonalLoop=1;jettySize=auto;html=1;entryX=0;entryY=0.25;entryDx=0;entryDy=0;fillColor=#f8cecc;strokeColor=#b85450;" parent="zH7CD539yPKMTo7ZfEln-3" source="no-w3kHmlKPdVMOaWSqH-1" target="zH7CD539yPKMTo7ZfEln-12" edge="1">
          <mxGeometry relative="1" as="geometry">
            <Array as="points">
              <mxPoint x="130" y="85" />
              <mxPoint x="130" y="313" />
            </Array>
          </mxGeometry>
        </mxCell>
        <mxCell id="no-w3kHmlKPdVMOaWSqH-13" style="edgeStyle=orthogonalEdgeStyle;rounded=0;orthogonalLoop=1;jettySize=auto;html=1;entryX=0;entryY=0.75;entryDx=0;entryDy=0;fillColor=#f8cecc;strokeColor=#b85450;" parent="zH7CD539yPKMTo7ZfEln-3" source="no-w3kHmlKPdVMOaWSqH-1" target="no-w3kHmlKPdVMOaWSqH-6" edge="1">
          <mxGeometry relative="1" as="geometry">
            <Array as="points">
              <mxPoint x="130" y="85" />
              <mxPoint x="130" y="238" />
            </Array>
          </mxGeometry>
        </mxCell>
        <mxCell id="no-w3kHmlKPdVMOaWSqH-1" value="Boost&lt;div&gt;5V&lt;/div&gt;" style="rounded=0;whiteSpace=wrap;html=1;glass=0;shadow=0;" parent="zH7CD539yPKMTo7ZfEln-3" vertex="1">
          <mxGeometry x="40" y="80" width="75" height="50" as="geometry" />
        </mxCell>
        <mxCell id="no-w3kHmlKPdVMOaWSqH-10" style="edgeStyle=orthogonalEdgeStyle;rounded=0;orthogonalLoop=1;jettySize=auto;html=1;exitX=0.25;exitY=1;exitDx=0;exitDy=0;entryX=0.25;entryY=0;entryDx=0;entryDy=0;" parent="zH7CD539yPKMTo7ZfEln-3" source="no-w3kHmlKPdVMOaWSqH-6" target="zH7CD539yPKMTo7ZfEln-12" edge="1">
          <mxGeometry relative="1" as="geometry" />
        </mxCell>
        <mxCell id="Ar8b3TrCb_WrASNO3pO2-3" style="edgeStyle=orthogonalEdgeStyle;rounded=0;orthogonalLoop=1;jettySize=auto;html=1;exitX=0.75;exitY=0;exitDx=0;exitDy=0;entryX=0;entryY=0.5;entryDx=0;entryDy=0;startArrow=classic;startFill=1;" edge="1" parent="zH7CD539yPKMTo7ZfEln-3" source="no-w3kHmlKPdVMOaWSqH-6" target="Ar8b3TrCb_WrASNO3pO2-2">
          <mxGeometry relative="1" as="geometry" />
        </mxCell>
        <mxCell id="Ar8b3TrCb_WrASNO3pO2-9" value="Onewire" style="edgeLabel;html=1;align=center;verticalAlign=middle;resizable=0;points=[];" vertex="1" connectable="0" parent="Ar8b3TrCb_WrASNO3pO2-3">
          <mxGeometry x="-0.6739" y="1" relative="1" as="geometry">
            <mxPoint x="45" y="-14" as="offset" />
          </mxGeometry>
        </mxCell>
        <mxCell id="Ar8b3TrCb_WrASNO3pO2-4" style="edgeStyle=orthogonalEdgeStyle;rounded=0;orthogonalLoop=1;jettySize=auto;html=1;exitX=0.93;exitY=0.001;exitDx=0;exitDy=0;entryX=0;entryY=0.5;entryDx=0;entryDy=0;startArrow=classic;startFill=1;exitPerimeter=0;" edge="1" parent="zH7CD539yPKMTo7ZfEln-3" source="no-w3kHmlKPdVMOaWSqH-6" target="Ar8b3TrCb_WrASNO3pO2-1">
          <mxGeometry relative="1" as="geometry">
            <Array as="points" />
          </mxGeometry>
        </mxCell>
        <mxCell id="Ar8b3TrCb_WrASNO3pO2-10" value="Onewire" style="edgeLabel;html=1;align=center;verticalAlign=middle;resizable=0;points=[];" vertex="1" connectable="0" parent="Ar8b3TrCb_WrASNO3pO2-4">
          <mxGeometry x="-0.584" y="1" relative="1" as="geometry">
            <mxPoint x="12" y="1" as="offset" />
          </mxGeometry>
        </mxCell>
        <mxCell id="no-w3kHmlKPdVMOaWSqH-6" value="&lt;div&gt;Signal Isolation&lt;/div&gt;" style="rounded=0;whiteSpace=wrap;html=1;glass=0;shadow=0;" parent="zH7CD539yPKMTo7ZfEln-3" vertex="1">
          <mxGeometry x="290" y="200" width="75" height="50" as="geometry" />
        </mxCell>
        <mxCell id="zH7CD539yPKMTo7ZfEln-58" value="For configuration / calibration without Core module" style="shape=callout;whiteSpace=wrap;html=1;perimeter=calloutPerimeter;shadow=1;fillStyle=solid;pointerEvents=1;align=center;verticalAlign=middle;fontFamily=Helvetica;fontSize=8;fontColor=#000000;fillColor=#FFF9B2;gradientColor=#F5E89B;gradientDirection=south;strokeWidth=0;base=10;position2=0.04;size=20;position=0.29;" parent="zH7CD539yPKMTo7ZfEln-3" vertex="1">
          <mxGeometry x="587" y="350" width="70" height="50" as="geometry" />
        </mxCell>
        <mxCell id="no-w3kHmlKPdVMOaWSqH-20" value="IA0505S" style="shape=callout;whiteSpace=wrap;html=1;perimeter=calloutPerimeter;shadow=1;fillStyle=solid;pointerEvents=1;align=center;verticalAlign=middle;fontFamily=Helvetica;fontSize=8;fontColor=#000000;fillColor=#FFF9B2;gradientColor=#F5E89B;gradientDirection=south;strokeWidth=0;base=10;position2=0.86;size=20;position=0.57;" parent="zH7CD539yPKMTo7ZfEln-3" vertex="1">
          <mxGeometry x="130" y="40" width="70" height="50" as="geometry" />
        </mxCell>
        <mxCell id="no-w3kHmlKPdVMOaWSqH-21" value="TPS631000" style="shape=callout;whiteSpace=wrap;html=1;perimeter=calloutPerimeter;shadow=1;fillStyle=solid;pointerEvents=1;align=center;verticalAlign=middle;fontFamily=Helvetica;fontSize=8;fontColor=#000000;fillColor=#FFF9B2;gradientColor=#F5E89B;gradientDirection=south;strokeWidth=0;base=10;position2=0.86;size=20;position=0.57;" parent="zH7CD539yPKMTo7ZfEln-3" vertex="1">
          <mxGeometry x="30" y="40" width="70" height="50" as="geometry" />
        </mxCell>
        <mxCell id="zH7CD539yPKMTo7ZfEln-5" value="Probe 2" style="rounded=0;whiteSpace=wrap;html=1;glass=0;shadow=0;" parent="zH7CD539yPKMTo7ZfEln-3" vertex="1">
          <mxGeometry x="540" y="80" width="75" height="30" as="geometry" />
        </mxCell>
        <mxCell id="zH7CD539yPKMTo7ZfEln-8" style="edgeStyle=orthogonalEdgeStyle;rounded=0;orthogonalLoop=1;jettySize=auto;html=1;" parent="zH7CD539yPKMTo7ZfEln-3" source="zH7CD539yPKMTo7ZfEln-6" target="no-w3kHmlKPdVMOaWSqH-5" edge="1">
          <mxGeometry relative="1" as="geometry">
            <mxPoint x="510" y="45" as="targetPoint" />
          </mxGeometry>
        </mxCell>
        <mxCell id="zH7CD539yPKMTo7ZfEln-9" style="edgeStyle=orthogonalEdgeStyle;rounded=0;orthogonalLoop=1;jettySize=auto;html=1;exitX=1;exitY=0.5;exitDx=0;exitDy=0;" parent="zH7CD539yPKMTo7ZfEln-3" source="zH7CD539yPKMTo7ZfEln-6" target="zH7CD539yPKMTo7ZfEln-5" edge="1">
          <mxGeometry relative="1" as="geometry" />
        </mxCell>
        <mxCell id="zH7CD539yPKMTo7ZfEln-10" style="edgeStyle=orthogonalEdgeStyle;rounded=0;orthogonalLoop=1;jettySize=auto;html=1;" parent="zH7CD539yPKMTo7ZfEln-3" source="zH7CD539yPKMTo7ZfEln-6" target="zH7CD539yPKMTo7ZfEln-7" edge="1">
          <mxGeometry relative="1" as="geometry" />
        </mxCell>
        <mxCell id="Ar8b3TrCb_WrASNO3pO2-6" style="edgeStyle=orthogonalEdgeStyle;rounded=0;orthogonalLoop=1;jettySize=auto;html=1;exitX=0.25;exitY=1;exitDx=0;exitDy=0;entryX=0.5;entryY=0;entryDx=0;entryDy=0;startArrow=classic;startFill=1;" edge="1" parent="zH7CD539yPKMTo7ZfEln-3" source="zH7CD539yPKMTo7ZfEln-6" target="no-w3kHmlKPdVMOaWSqH-6">
          <mxGeometry relative="1" as="geometry">
            <Array as="points">
              <mxPoint x="439" y="130" />
              <mxPoint x="328" y="130" />
            </Array>
          </mxGeometry>
        </mxCell>
        <mxCell id="Ar8b3TrCb_WrASNO3pO2-8" value="I/O" style="edgeLabel;html=1;align=center;verticalAlign=middle;resizable=0;points=[];" vertex="1" connectable="0" parent="Ar8b3TrCb_WrASNO3pO2-6">
          <mxGeometry x="0.4039" relative="1" as="geometry">
            <mxPoint y="30" as="offset" />
          </mxGeometry>
        </mxCell>
        <mxCell id="zH7CD539yPKMTo7ZfEln-6" value="2x 2:1 mux" style="rounded=0;whiteSpace=wrap;html=1;glass=0;shadow=0;" parent="zH7CD539yPKMTo7ZfEln-3" vertex="1">
          <mxGeometry x="420" y="60" width="75" height="50" as="geometry" />
        </mxCell>
        <mxCell id="zH7CD539yPKMTo7ZfEln-7" value="EZO EC Module" style="rounded=0;whiteSpace=wrap;html=1;glass=0;shadow=0;" parent="zH7CD539yPKMTo7ZfEln-3" vertex="1">
          <mxGeometry x="290" y="60" width="75" height="50" as="geometry" />
        </mxCell>
        <mxCell id="no-w3kHmlKPdVMOaWSqH-14" style="edgeStyle=orthogonalEdgeStyle;rounded=0;orthogonalLoop=1;jettySize=auto;html=1;fillColor=#f8cecc;strokeColor=#b85450;" parent="zH7CD539yPKMTo7ZfEln-3" source="no-w3kHmlKPdVMOaWSqH-2" target="zH7CD539yPKMTo7ZfEln-7" edge="1">
          <mxGeometry relative="1" as="geometry" />
        </mxCell>
        <mxCell id="no-w3kHmlKPdVMOaWSqH-15" style="edgeStyle=orthogonalEdgeStyle;rounded=0;orthogonalLoop=1;jettySize=auto;html=1;exitX=1;exitY=0.5;exitDx=0;exitDy=0;entryX=0.25;entryY=0;entryDx=0;entryDy=0;fillColor=#f8cecc;strokeColor=#b85450;" parent="zH7CD539yPKMTo7ZfEln-3" source="no-w3kHmlKPdVMOaWSqH-2" target="zH7CD539yPKMTo7ZfEln-6" edge="1">
          <mxGeometry relative="1" as="geometry">
            <Array as="points">
              <mxPoint x="260" y="85" />
              <mxPoint x="260" y="40" />
              <mxPoint x="439" y="40" />
            </Array>
          </mxGeometry>
        </mxCell>
        <mxCell id="no-w3kHmlKPdVMOaWSqH-18" value="+5V" style="edgeLabel;html=1;align=center;verticalAlign=middle;resizable=0;points=[];" parent="no-w3kHmlKPdVMOaWSqH-15" vertex="1" connectable="0">
          <mxGeometry x="-0.7306" y="1" relative="1" as="geometry">
            <mxPoint y="-1" as="offset" />
          </mxGeometry>
        </mxCell>
        <mxCell id="no-w3kHmlKPdVMOaWSqH-16" style="edgeStyle=orthogonalEdgeStyle;rounded=0;orthogonalLoop=1;jettySize=auto;html=1;entryX=0.5;entryY=0;entryDx=0;entryDy=0;exitX=0.75;exitY=0;exitDx=0;exitDy=0;fillColor=#dae8fc;strokeColor=#6c8ebf;" parent="zH7CD539yPKMTo7ZfEln-3" source="no-w3kHmlKPdVMOaWSqH-2" target="zH7CD539yPKMTo7ZfEln-6" edge="1">
          <mxGeometry relative="1" as="geometry">
            <Array as="points">
              <mxPoint x="225" y="20" />
              <mxPoint x="458" y="20" />
              <mxPoint x="458" y="60" />
            </Array>
          </mxGeometry>
        </mxCell>
        <mxCell id="no-w3kHmlKPdVMOaWSqH-17" value="-5V" style="edgeLabel;html=1;align=center;verticalAlign=middle;resizable=0;points=[];" parent="no-w3kHmlKPdVMOaWSqH-16" vertex="1" connectable="0">
          <mxGeometry x="-0.8933" y="1" relative="1" as="geometry">
            <mxPoint x="36" y="-22" as="offset" />
          </mxGeometry>
        </mxCell>
        <mxCell id="no-w3kHmlKPdVMOaWSqH-2" value="&lt;div&gt;&lt;span style=&quot;background-color: initial;&quot;&gt;Isolation&lt;/span&gt;&lt;br&gt;&lt;/div&gt;&lt;div&gt;+5V -5V&lt;/div&gt;" style="rounded=0;whiteSpace=wrap;html=1;glass=0;shadow=0;" parent="zH7CD539yPKMTo7ZfEln-3" vertex="1">
          <mxGeometry x="169" y="60" width="75" height="50" as="geometry" />
        </mxCell>
        <mxCell id="no-w3kHmlKPdVMOaWSqH-5" value="Probe 1" style="rounded=0;whiteSpace=wrap;html=1;glass=0;shadow=0;" parent="zH7CD539yPKMTo7ZfEln-3" vertex="1">
          <mxGeometry x="540" y="50" width="75" height="30" as="geometry" />
        </mxCell>
        <mxCell id="no-w3kHmlKPdVMOaWSqH-11" style="edgeStyle=orthogonalEdgeStyle;rounded=0;orthogonalLoop=1;jettySize=auto;html=1;exitX=0.25;exitY=1;exitDx=0;exitDy=0;entryX=0.25;entryY=0;entryDx=0;entryDy=0;startArrow=classic;startFill=1;" parent="zH7CD539yPKMTo7ZfEln-3" source="zH7CD539yPKMTo7ZfEln-7" target="no-w3kHmlKPdVMOaWSqH-6" edge="1">
          <mxGeometry relative="1" as="geometry">
            <mxPoint x="308.75" y="180" as="targetPoint" />
          </mxGeometry>
        </mxCell>
        <mxCell id="Ar8b3TrCb_WrASNO3pO2-7" value="UART" style="edgeLabel;html=1;align=center;verticalAlign=middle;resizable=0;points=[];" vertex="1" connectable="0" parent="no-w3kHmlKPdVMOaWSqH-11">
          <mxGeometry x="-0.0062" y="-2" relative="1" as="geometry">
            <mxPoint as="offset" />
          </mxGeometry>
        </mxCell>
        <mxCell id="no-w3kHmlKPdVMOaWSqH-19" value="TMUX6236" style="shape=callout;whiteSpace=wrap;html=1;perimeter=calloutPerimeter;shadow=1;fillStyle=solid;pointerEvents=1;align=center;verticalAlign=middle;fontFamily=Helvetica;fontSize=8;fontColor=#000000;fillColor=#FFF9B2;gradientColor=#F5E89B;gradientDirection=south;strokeWidth=0;base=10;position2=0.29;size=20;position=0.29;" parent="zH7CD539yPKMTo7ZfEln-3" vertex="1">
          <mxGeometry x="470" y="20" width="70" height="50" as="geometry" />
        </mxCell>
        <mxCell id="Ar8b3TrCb_WrASNO3pO2-1" value="Temperature 2" style="rounded=0;whiteSpace=wrap;html=1;glass=0;shadow=0;" vertex="1" parent="zH7CD539yPKMTo7ZfEln-3">
          <mxGeometry x="540" y="160" width="75" height="30" as="geometry" />
        </mxCell>
        <mxCell id="Ar8b3TrCb_WrASNO3pO2-2" value="Temperature 1" style="rounded=0;whiteSpace=wrap;html=1;glass=0;shadow=0;" vertex="1" parent="zH7CD539yPKMTo7ZfEln-3">
          <mxGeometry x="540" y="130" width="75" height="30" as="geometry" />
        </mxCell>
        <mxCell id="Ar8b3TrCb_WrASNO3pO2-11" value="ISO1644DWR" style="shape=callout;whiteSpace=wrap;html=1;perimeter=calloutPerimeter;shadow=1;fillStyle=solid;pointerEvents=1;align=center;verticalAlign=middle;fontFamily=Helvetica;fontSize=8;fontColor=#000000;fillColor=#FFF9B2;gradientColor=#F5E89B;gradientDirection=south;strokeWidth=0;base=11;position2=1;size=20;position=0.73;" vertex="1" parent="zH7CD539yPKMTo7ZfEln-3">
          <mxGeometry x="209" y="170" width="70" height="50" as="geometry" />
        </mxCell>
      </root>
    </mxGraphModel>
  </diagram>
  <diagram id="pHjJerPrwE4YGmkiOosl" name="Software">
    <mxGraphModel dx="989" dy="542" grid="1" gridSize="10" guides="1" tooltips="1" connect="1" arrows="1" fold="1" page="1" pageScale="1" pageWidth="827" pageHeight="1169" math="0" shadow="0">
      <root>
        <mxCell id="0" />
        <mxCell id="1" parent="0" />
        <mxCell id="RICit7SoAw3jnX4Z04Tt-1" value="" style="rounded=0;whiteSpace=wrap;html=1;" vertex="1" parent="1">
          <mxGeometry x="280" y="80" width="120" height="60" as="geometry" />
        </mxCell>
        <mxCell id="RICit7SoAw3jnX4Z04Tt-2" value="" style="rounded=0;whiteSpace=wrap;html=1;" vertex="1" parent="1">
          <mxGeometry x="280" y="150" width="120" height="60" as="geometry" />
        </mxCell>
        <mxCell id="RICit7SoAw3jnX4Z04Tt-3" value="" style="rounded=0;whiteSpace=wrap;html=1;" vertex="1" parent="1">
          <mxGeometry x="410" y="150" width="120" height="60" as="geometry" />
        </mxCell>
        <mxCell id="RICit7SoAw3jnX4Z04Tt-4" value="" style="rounded=0;whiteSpace=wrap;html=1;" vertex="1" parent="1">
          <mxGeometry x="410" y="80" width="120" height="60" as="geometry" />
        </mxCell>
      </root>
    </mxGraphModel>
  </diagram>
</mxfile>
